# xmcd
#
# Track frame offsets:
#	150
#	13322
#	26908
#	45560
#	56430
#	69399
#	84310
#	97033
#	107842
#	119713
#	130999
#	148572
#	161542
#	167999
#	170576
#	176673
#	185984
#	187857
#	190878
#	193507
#	195468
#
# Disc length: 2627 seconds
#
# Revision: 7
# Processed by: cddbd v1.5.2PL0 Copyright (c) Steve Scherf et al.
# Submitted via: EasyCDDAExtractor 12.0.1.1
#
DISCID=330a4115
DTITLE=Selena
DYEAR=2002
DGENRE=Latin
TTITLE0=Tu Eres
TTITLE1=Sukiyaki
TTITLE2=Contigo Quiero Estar
TTITLE3=Besitos
TTITLE4=Amame, Quiereme
TTITLE5=Tengo Ganas De Llorar
TTITLE6=My Love
TTITLE7=Quiero Ser
TTITLE8=Mentiras
TTITLE9=No Te Vayas
TTITLE10=La Bamba
TTITLE11=Intro (Spoken Liner Notes By The Band And Family)
TTITLE12=Sukiyaki (Spoken Liner Notes By The Band And Family)
TTITLE13=Contigo Quiero Estar (Spoken Liner Notes By The Band And Family)
TTITLE14=Besitos (Spoken Liner Notes By The Band And Family)
TTITLE15=Amame, Quiereme (Spoken Liner Notes By The Band And Family)
TTITLE16=Tengo Ganas De Llorar (Spoken Liner Notes By The Band And Family)
TTITLE17=My Love (Spoken Liner Notes By The Band And Family)
TTITLE18=Mentiras (Spoken Liner Notes By The Band And Family)
TTITLE19=No Te Vayas (Spoken Liner Notes By The Band And Family)
TTITLE20=Outro (Spoken Liner Notes By The Band And Family)
EXTD=
EXTT0=
EXTT1=
EXTT2=
EXTT3=
EXTT4=
EXTT5=
EXTT6=
EXTT7=
EXTT8=
EXTT9=
EXTT10=
EXTT11=
EXTT12=
EXTT13=
EXTT14=
EXTT15=
EXTT16=
EXTT17=
EXTT18=
EXTT19=
EXTT20=
PLAYORDER=
